<?xml version="1.0" encoding="UTF-8" standalone="no"?>
<!DOCTYPE svg PUBLIC "-//W3C//DTD SVG 1.1//EN" "http://www.w3.org/Graphics/SVG/1.1/DTD/svg11.dtd">
<svg version="1.1" xmlns="http://www.w3.org/2000/svg" xmlns:xlink="http://www.w3.org/1999/xlink" preserveAspectRatio="xMidYMid meet" viewBox="0 0 640 640" width="640" height="640"><defs><path d="M209.29 304.15L280 233.44L209.29 162.73L138.58 233.43L209.29 304.15Z" id="bzDsLfspe"></path><path d="M350.71 304.63L421.42 233.92L350.71 163.21L280 233.92L350.71 304.63Z" id="bDowzI0ke"></path><path d="M208.79 445.57L279.5 374.86L208.79 304.15L138.08 374.86L208.79 445.57Z" id="cAu4fToZb"></path><path d="M350.21 445.57L420.92 374.86L350.21 304.15L279.5 374.86L350.21 445.57Z" id="b38IxgQRho"></path><path d="M350.71 233.44L421.42 162.73L350.71 162.73L350.71 233.44Z" id="f1TjSyxv8"></path><path d="M280 233.92L350.71 304.63L350.71 233.92L280 233.92Z" id="ec0iyrK3O"></path><path d="M138.58 163.21L209.29 233.92L138.58 233.92L138.58 163.21Z" id="dPnBevagd"></path><path d="M420.92 445.57L350.21 374.86L420.92 374.86L420.92 445.57Z" id="cRPEACoZx"></path><path d="M138.08 445.23L208.79 374.52L208.79 445.23L138.08 445.23Z" id="b1dnKzUYVA"></path><path d="M208.79 304.15L279.5 374.86L208.79 374.86L208.79 304.15Z" id="boREMLuvU"></path><path d="M208.79 304.15L279.5 233.44L208.79 233.44L208.79 304.15Z" id="b1efHtogRR"></path><path d="M350.21 304.15L279.5 374.86L350.21 374.86L350.21 304.15Z" id="f33QoYSDy"></path><path d="M280 483.21L315.36 447.86L280 412.5L244.65 447.86L280 483.21Z" id="f5NNp1789z"></path><path d="M456.28 480.59L491.63 445.23L456.28 409.88L420.92 445.23L456.28 480.59Z" id="b3SseDjRtv"></path><path d="M280 233.92L315.36 198.56L280 163.21L244.65 198.56L280 233.92Z" id="b5TctL0Xs2"></path><path d="M138.58 313.27L173.93 277.92L138.58 242.56L103.22 277.92L138.58 313.27Z" id="b1XdZKJRjj"></path><path d="M173.43 184.8L208.79 149.45L173.43 114.09L138.08 149.45L173.43 184.8Z" id="dzenT8lXo"></path><path d="M420.92 282.51L438.6 264.83L420.92 247.15L403.24 264.83L420.92 282.51Z" id="a1Pa9Y7PDJ"></path><path d="M279.5 374.86L297.18 357.18L279.5 339.5L261.82 357.18L279.5 374.86Z" id="a4mh75oXwa"></path><path d="M138.58 374.86L156.26 357.18L138.58 339.5L120.9 357.18L138.58 374.86Z" id="e27TmiUi7x"></path></defs><g><g><g><g></g><use xlink:href="#bzDsLfspe" opacity="1" fill="#ff6a00" fill-opacity="1"></use><g></g></g><g><g></g><use xlink:href="#bDowzI0ke" opacity="1" fill="#ed4255" fill-opacity="1"></use><g></g></g><g><g></g><use xlink:href="#cAu4fToZb" opacity="1" fill="#084f93" fill-opacity="1"></use><g></g></g><g><g></g><use xlink:href="#b38IxgQRho" opacity="1" fill="#20686c" fill-opacity="1"></use><g></g></g><g><use xlink:href="#f1TjSyxv8" opacity="1" fill="#a20417" fill-opacity="1"></use></g><g><use xlink:href="#ec0iyrK3O" opacity="1" fill="#a20417" fill-opacity="1"></use></g><g><use xlink:href="#dPnBevagd" opacity="1" fill="#ffb62a" fill-opacity="1"></use></g><g><use xlink:href="#cRPEACoZx" opacity="1" fill="#61ffba" fill-opacity="1"></use></g><g><use xlink:href="#b1dnKzUYVA" opacity="1" fill="#00a2e2" fill-opacity="1"></use></g><g><use xlink:href="#boREMLuvU" opacity="1" fill="#00a2e2" fill-opacity="1"></use></g><g><use xlink:href="#b1efHtogRR" opacity="1" fill="#ffb62a" fill-opacity="1"></use></g><g><use xlink:href="#f33QoYSDy" opacity="1" fill="#61ffba" fill-opacity="1"></use></g><g><g></g><use xlink:href="#f5NNp1789z" opacity="1" fill="#ed4255" fill-opacity="1"></use><g></g></g><g><g></g><use xlink:href="#b3SseDjRtv" opacity="1" fill="#ff6a00" fill-opacity="1"></use><g></g></g><g><g></g><use xlink:href="#b5TctL0Xs2" opacity="1" fill="#084f93" fill-opacity="1"></use><g></g></g><g><g></g><use xlink:href="#b1XdZKJRjj" opacity="1" fill="#a20417" fill-opacity="1"></use><g></g></g><g><g></g><use xlink:href="#dzenT8lXo" opacity="1" fill="#20686c" fill-opacity="1"></use><g></g></g><g><g></g><use xlink:href="#a1Pa9Y7PDJ" opacity="1" fill="#00a2e2" fill-opacity="1"></use><g></g></g><g><g></g><use xlink:href="#a4mh75oXwa" opacity="1" fill="#20686c" fill-opacity="1"></use><g></g></g><g><g></g><use xlink:href="#e27TmiUi7x" opacity="1" fill="#61ffba" fill-opacity="1"></use><g></g></g></g></g></svg>