<?xml version="1.0" encoding="UTF-8" standalone="no"?>
<!DOCTYPE svg PUBLIC "-//W3C//DTD SVG 1.1//EN" "http://www.w3.org/Graphics/SVG/1.1/DTD/svg11.dtd">
<svg version="1.1" xmlns="http://www.w3.org/2000/svg" xmlns:xlink="http://www.w3.org/1999/xlink" preserveAspectRatio="xMidYMid meet" viewBox="0 0 640 640" width="640" height="640"><defs><path d="M220.29 -184.85L291 -255.56L220.29 -326.27L149.58 -255.57L220.29 -184.85Z" id="f5TA3f3L9c"></path><path d="M219.79 -184.85L290.5 -255.56L219.79 -255.56L219.79 -184.85Z" id="bn5D9SfTx"></path><path d="M219.79 -43.43L290.5 -114.14L219.79 -184.85L149.08 -114.14L219.79 -43.43Z" id="e1Cnq5LBwa"></path><path d="M361.21 -43.43L431.92 -114.14L361.21 -184.85L290.5 -114.14L361.21 -43.43Z" id="aK2PVkOon"></path><path d="M291 -255.08L361.71 -184.37L361.71 -255.08L291 -255.08Z" id="d1V2Tuype"></path><path d="M361.71 -255.56L432.42 -326.27L361.71 -326.27L361.71 -255.56Z" id="aMNp3LREz"></path><path d="M149.58 -325.79L220.29 -255.08L149.58 -255.08L149.58 -325.79Z" id="b4HgLfejaq"></path><path d="M361.71 -184.37L432.42 -255.08L361.71 -325.79L291 -255.08L361.71 -184.37Z" id="ezUZndARu"></path><path d="M431.92 -43.43L361.21 -114.14L431.92 -114.14L431.92 -43.43Z" id="c54S9yWbaS"></path><path d="M149.08 -43.77L219.79 -114.48L219.79 -43.77L149.08 -43.77Z" id="c3TSh2NEy5"></path><path d="M219.79 -184.85L290.5 -114.14L219.79 -114.14L219.79 -184.85Z" id="c3orJ1fo2"></path><path d="M361.21 -184.85L290.5 -114.14L361.21 -114.14L361.21 -184.85Z" id="a2SAOroGdI"></path><path d="M291 -5.79L326.36 -41.14L291 -76.5L255.65 -41.14L291 -5.79Z" id="dGWI069S6"></path><path d="M467.28 -8.41L502.63 -43.77L467.28 -79.12L431.92 -43.77L467.28 -8.41Z" id="c13gaKQI2E"></path><path d="M291 -255.08L326.36 -290.44L291 -325.79L255.65 -290.44L291 -255.08Z" id="cWgBtfv2j"></path><path d="M149.58 -175.73L184.93 -211.08L149.58 -246.44L114.22 -211.08L149.58 -175.73Z" id="ekGyneyXO"></path><path d="M184.43 -304.2L219.79 -339.55L184.43 -374.91L149.08 -339.55L184.43 -304.2Z" id="gwH3H05LS"></path><path d="M431.92 -206.49L449.6 -224.17L431.92 -241.85L414.24 -224.17L431.92 -206.49Z" id="a1P1rFlaWK"></path><path d="M290.5 -114.14L308.18 -131.82L290.5 -149.5L272.82 -131.82L290.5 -114.14Z" id="a1fTwmlC2R"></path><path d="M149.58 -114.14L167.26 -131.82L149.58 -149.5L131.9 -131.82L149.58 -114.14Z" id="bw3P1l6MW"></path><path d="M100 0L0 0L50 50L100 0Z" id="at6tko337"></path><path d="M150 50L50 50L100 0L150 50Z" id="a3U1KnudKM"></path><path d="M-50 50L50 50L0 0L-50 50Z" id="bWnY2G0Fn"></path><path d="M199.08 0L99.08 0L149.08 50L199.08 0Z" id="avRTTMmb1"></path><path d="M100 100L0 100L50 50L100 100Z" id="b3KjROAQL"></path><path d="M199.08 100L99.08 100L149.08 50L199.08 100Z" id="absHHJTRY"></path><path d="M249.08 50L149.08 50L199.08 0L249.08 50Z" id="bsk6MbcmV"></path><path d="M150 50L50 50L100 100L150 50Z" id="dikILo9lx"></path><path d="M150 150L50 150L100 100L150 150Z" id="a49CsXyCbb"></path><path d="M50 150L-50 150L0 100L50 150Z" id="a13KlPRJxS"></path><path d="M348.41 50L248.41 50L298.41 0L348.41 50Z" id="d1WPok9BIi"></path><path d="M248.41 50L148.41 50L198.41 100L248.41 50Z" id="a5bJfiUxI"></path><path d="M248.41 150L148.41 150L198.41 100L248.41 150Z" id="f1VerMAAWY"></path><path d="M50 150L-50 150L0 200L50 150Z" id="d1wKHP8zn0"></path><path d="M150 149.81L50 149.81L100 199.81L150 149.81Z" id="d1HDHjhqu"></path><path d="M248.41 150L148.41 150L198.41 200L248.41 150Z" id="a2E3WK20is"></path><path d="M100 200L0 200L50 250L100 200Z" id="b2wBmAHE23"></path><path d="M150 250L50 250L100 200L150 250Z" id="dap8XYWZh1"></path><path d="M298.41 99.81L198.41 99.81L248.41 149.81L298.41 99.81Z" id="d37fMSsaSF"></path><path d="M199.08 200L99.08 200L149.08 150L199.08 200Z" id="b1o1UiTgmB"></path><path d="M50 250L-50 250L0 300L50 250Z" id="b2NxPgPLS8"></path><path d="M150 250L50 250L100 300L150 250Z" id="eSwziPYoB"></path><path d="M100 300L0 300L50 250L100 300Z" id="a30ldAzpdG"></path><path d="M100 300L0 300L50 350L100 300Z" id="abvJvyS8p8"></path><path d="M0 400L0 300L50 350L0 400Z" id="b5GOUbZDyB"></path><path d="M259.08 200.5L208.08 200.5L233.58 175L259.08 200.5Z" id="icWkJDum"></path><path d="M50 363.94L13.94 400L50 400L50 363.94Z" id="bImOKt0rV"></path><path d="M248.41 250.5L148.41 250.5L198.41 200.5L248.41 250.5Z" id="bLxMIE9j9"></path><path d="M234.47 263.94L198.41 300L198.41 263.94L234.47 263.94Z" id="heSAKonWy"></path><path d="M399.41 0L348.41 0L373.91 25.5L399.41 0Z" id="c1edO4WpNR"></path></defs><g><g><g><g></g><use xlink:href="#f5TA3f3L9c" opacity="1" fill="#ff6a00" fill-opacity="1"></use><g></g></g><g><use xlink:href="#bn5D9SfTx" opacity="1" fill="#ffa321" fill-opacity="1"></use></g><g><g></g><use xlink:href="#e1Cnq5LBwa" opacity="1" fill="#084f93" fill-opacity="1"></use><g></g></g><g><g></g><use xlink:href="#aK2PVkOon" opacity="1" fill="#20686c" fill-opacity="1"></use><g></g></g><g><use xlink:href="#d1V2Tuype" opacity="1" fill="#a20417" fill-opacity="1"></use></g><g><use xlink:href="#aMNp3LREz" opacity="1" fill="#a20417" fill-opacity="1"></use></g><g><use xlink:href="#b4HgLfejaq" opacity="1" fill="#ffa321" fill-opacity="1"></use></g><g><g></g><use xlink:href="#ezUZndARu" opacity="1" fill="#ed4255" fill-opacity="1"></use><g></g></g><g><use xlink:href="#c54S9yWbaS" opacity="1" fill="#61ffba" fill-opacity="1"></use></g><g><use xlink:href="#c3TSh2NEy5" opacity="1" fill="#00a2e2" fill-opacity="1"></use></g><g><use xlink:href="#c3orJ1fo2" opacity="1" fill="#00a2e2" fill-opacity="1"></use></g><g><use xlink:href="#a2SAOroGdI" opacity="1" fill="#61ffba" fill-opacity="1"></use></g><g><g></g><use xlink:href="#dGWI069S6" opacity="1" fill="#ed4255" fill-opacity="1"></use><g></g></g><g><g></g><use xlink:href="#c13gaKQI2E" opacity="1" fill="#ff6a00" fill-opacity="1"></use><g></g></g><g><g></g><use xlink:href="#cWgBtfv2j" opacity="1" fill="#084f93" fill-opacity="1"></use><g></g></g><g><g></g><use xlink:href="#ekGyneyXO" opacity="1" fill="#a20417" fill-opacity="1"></use><g></g></g><g><g></g><use xlink:href="#gwH3H05LS" opacity="1" fill="#20686c" fill-opacity="1"></use><g></g></g><g><g></g><use xlink:href="#a1P1rFlaWK" opacity="1" fill="#00a2e2" fill-opacity="1"></use><g></g></g><g><g></g><use xlink:href="#a1fTwmlC2R" opacity="1" fill="#20686c" fill-opacity="1"></use><g></g></g><g><g></g><use xlink:href="#bw3P1l6MW" opacity="1" fill="#61ffba" fill-opacity="1"></use><g></g></g><g><use xlink:href="#at6tko337" opacity="1" fill="#00a2e2" fill-opacity="1"></use></g><g><use xlink:href="#a3U1KnudKM" opacity="1" fill="#20686c" fill-opacity="1"></use></g><g><use xlink:href="#bWnY2G0Fn" opacity="1" fill="#084f93" fill-opacity="1"></use><g></g></g><g><use xlink:href="#avRTTMmb1" opacity="1" fill="#61ffba" fill-opacity="1"></use></g><g><use xlink:href="#b3KjROAQL" opacity="1" fill="#00a2e2" fill-opacity="1"></use></g><g><use xlink:href="#absHHJTRY" opacity="1" fill="#084f93" fill-opacity="1"></use></g><g><use xlink:href="#bsk6MbcmV" opacity="1" fill="#a20417" fill-opacity="1"></use></g><g><use xlink:href="#dikILo9lx" opacity="1" fill="#ff6a00" fill-opacity="1"></use></g><g><use xlink:href="#a49CsXyCbb" opacity="1" fill="#084f93" fill-opacity="1"></use></g><g><use xlink:href="#a13KlPRJxS" opacity="1" fill="#20686c" fill-opacity="1"></use></g><g><use xlink:href="#d1WPok9BIi" opacity="1" fill="#084f93" fill-opacity="1"></use></g><g><use xlink:href="#a5bJfiUxI" opacity="1" fill="#20686c" fill-opacity="1"></use></g><g><use xlink:href="#f1VerMAAWY" opacity="1" fill="#00a2e2" fill-opacity="1"></use></g><g><use xlink:href="#d1wKHP8zn0" opacity="1" fill="#ff6a00" fill-opacity="1"></use></g><g><use xlink:href="#d1HDHjhqu" opacity="1" fill="#a20417" fill-opacity="1"></use></g><g><use xlink:href="#a2E3WK20is" opacity="1" fill="#ffa321" fill-opacity="1"></use></g><g><use xlink:href="#b2wBmAHE23" opacity="1" fill="#ed4255" fill-opacity="1"></use></g><g><use xlink:href="#dap8XYWZh1" opacity="1" fill="#00a2e2" fill-opacity="1"></use></g><g><use xlink:href="#d37fMSsaSF" opacity="1" fill="#61ffba" fill-opacity="1"></use></g><g><use xlink:href="#b1o1UiTgmB" opacity="1" fill="#20686c" fill-opacity="1"></use></g><g><use xlink:href="#b2NxPgPLS8" opacity="1" fill="#a20417" fill-opacity="1"></use></g><g><use xlink:href="#eSwziPYoB" opacity="1" fill="#084f93" fill-opacity="1"></use></g><g><use xlink:href="#a30ldAzpdG" opacity="1" fill="#ff6a00" fill-opacity="1"></use></g><g><use xlink:href="#abvJvyS8p8" opacity="1" fill="#61ffba" fill-opacity="1"></use></g><g><use xlink:href="#b5GOUbZDyB" opacity="1" fill="#20686c" fill-opacity="1"></use></g><g><use xlink:href="#icWkJDum" opacity="1" fill="#084f93" fill-opacity="1"></use></g><g><use xlink:href="#bImOKt0rV" opacity="1" fill="#084f93" fill-opacity="1"></use></g><g><use xlink:href="#bLxMIE9j9" opacity="1" fill="#ff6a00" fill-opacity="1"></use></g><g><use xlink:href="#heSAKonWy" opacity="1" fill="#084f93" fill-opacity="1"></use></g><g><use xlink:href="#c1edO4WpNR" opacity="1" fill="#00a2e2" fill-opacity="1"></use></g></g></g></svg>